# xmcd
#
# Track frame offsets:
#	150
#	21905
#	37635
#	58688
#	71865
#	88774
#	115055
#	124726
#	143127
#	155824
#	172005
#	185075
#	199657
#	211715
#	224032
#	237198
#	263272
#
# Disc length: 3711 seconds
#
# Revision: 1
# Processed by: cddbd v1.5.2PL0 Copyright (c) Steve Scherf et al.
# Submitted via: audiograbber 1.83.01
#
DISCID=f80e7d11
DTITLE=Dieter Gasde - Good News and Friends
DYEAR=1999
DGENRE=Blues
TTITLE0=Good news
TTITLE1=I went to the hope joint
TTITLE2=Six feet under the ground
TTITLE3=I'm grateful
TTITLE4=Bright lights, big city
TTITLE5=Watermelonman
TTITLE6=Mind your own business
TTITLE7=Sweet little baby
TTITLE8=When the things go wrong
TTITLE9=You got to move
TTITLE10=Caledonia
TTITLE11=Cakewalk into town
TTITLE12=You fly to my head like a wine
TTITLE13=Hound Dog
TTITLE14=One scotch, one bourbon, one beer
TTITLE15=Trouble in mind
TTITLE16=People get ready
EXTD=
EXTT0=
EXTT1=
EXTT2=
EXTT3=
EXTT4=
EXTT5=
EXTT6=
EXTT7=
EXTT8=
EXTT9=
EXTT10=
EXTT11=
EXTT12=
EXTT13=
EXTT14=
EXTT15=
EXTT16=
PLAYORDER=
